<svg width="42" height="42" viewBox="0 0 42 42" fill="none" xmlns="http://www.w3.org/2000/svg">
<path d="M9.38562 27.2373C9.30911 27.2267 9.23611 27.2173 9.16661 27.2092C9.09738 27.2011 9.03744 27.195 8.98679 27.1909C8.93615 27.1869 8.85479 27.1897 8.74273 27.1995C8.63039 27.2092 8.51214 27.2226 8.38795 27.2396C8.26403 27.2567 8.10467 27.297 7.90991 27.3604C7.71541 27.424 7.60173 27.4622 7.56887 27.4749C7.536 27.4877 7.44131 27.5401 7.2848 27.6322C7.12802 27.7243 6.94214 27.8867 6.72717 28.1193C6.5122 28.3517 6.3596 28.5419 6.26935 28.6898C6.17938 28.8377 6.0983 28.9952 6.0261 29.1623C5.95391 29.3294 5.88846 29.5217 5.82973 29.7389C5.77128 29.9562 5.7291 30.1827 5.70324 30.4187C5.67711 30.6549 5.66795 30.8459 5.67576 30.9916C5.68358 31.1374 5.71175 31.3273 5.76023 31.5616C5.80872 31.7959 5.93399 32.1243 6.13602 32.5466C6.33806 32.9691 6.4974 33.2529 6.61404 33.3978C6.73069 33.543 6.84261 33.6662 6.94983 33.7675C7.05677 33.8688 7.14701 33.9471 7.22055 34.0024C7.29383 34.0577 7.38704 34.1187 7.50018 34.1856C7.61305 34.2525 7.67395 34.2894 7.68284 34.2961C7.69199 34.3029 7.77428 34.3403 7.92971 34.4083C8.08515 34.4763 8.23815 34.5333 8.38874 34.5793C8.53933 34.6257 8.81264 34.6722 9.20863 34.7191C9.60463 34.766 9.91414 34.786 10.1372 34.7792C10.36 34.7724 10.5816 34.7522 10.8019 34.7183C11.0225 34.6842 11.236 34.6407 11.4424 34.5879C11.6487 34.5353 11.8153 34.4866 11.9422 34.4416C12.0688 34.3964 12.2543 34.3154 12.4986 34.1986C12.7427 34.0821 13.0115 33.9237 13.3052 33.7233C13.5988 33.5231 13.8554 33.3299 14.0749 33.1438C14.2945 32.9577 14.4492 32.8179 14.5392 32.7241C14.6292 32.6307 14.7254 32.5185 14.8277 32.3876C14.9301 32.2568 15.0342 32.1053 15.1401 31.933C15.2462 31.7605 15.3202 31.6199 15.3619 31.5112C15.4039 31.4029 15.4406 31.2525 15.4718 31.0599C15.5028 30.8676 15.5164 30.7161 15.5126 30.6055C15.5091 30.495 15.4951 30.3885 15.4706 30.2858C15.4461 30.1832 15.4243 30.1072 15.4052 30.0579C15.386 30.0088 15.3404 29.9281 15.2682 29.8157C15.1962 29.7036 15.1525 29.6387 15.1369 29.6211C15.1212 29.6035 15.0446 29.5358 14.9069 29.4179C14.769 29.3001 14.6691 29.2268 14.6071 29.1981C14.5452 29.1694 14.4576 29.1414 14.3445 29.114C14.2313 29.0869 14.1427 29.0726 14.0786 29.0709C14.0147 29.0693 13.9657 29.0677 13.9315 29.0661C13.8973 29.0642 13.8184 29.0759 13.6947 29.1014C13.5711 29.1266 13.4668 29.1586 13.3819 29.1973C13.2968 29.2361 13.2373 29.2642 13.2033 29.2818C13.1691 29.2992 13.082 29.3601 12.9419 29.4647C12.8018 29.5692 12.6764 29.6837 12.5657 29.808C12.455 29.9323 12.3497 30.0736 12.2497 30.2318C12.1498 30.39 12.0252 30.6492 11.8759 31.0095C11.727 31.3697 11.6029 31.8282 11.5038 32.3849C11.4046 32.9415 11.3599 33.3278 11.3696 33.5437C11.3793 33.7593 11.4133 34.0024 11.4715 34.273C11.5296 34.5433 11.5806 34.7398 11.6242 34.8625C11.6678 34.9853 11.7198 35.1118 11.7802 35.2421C11.8405 35.3724 11.9244 35.524 12.0319 35.6971C12.1391 35.8705 12.2919 36.0757 12.4901 36.3127C12.6884 36.5497 12.8578 36.732 12.9985 36.8596C13.1388 36.9869 13.2652 37.0946 13.3775 37.1826C13.4898 37.2706 13.7289 37.4136 14.0947 37.6113C14.4603 37.8088 14.6789 37.921 14.7505 37.9481C14.8222 37.9749 15.0306 38.0279 15.3757 38.107C15.7205 38.1861 16.0013 38.2321 16.2182 38.2451C16.435 38.2581 16.7948 38.2446 17.2975 38.2045C17.5701 38.1425 17.8047 38.0779 18.0014 38.0107C18.198 37.9435 18.4126 37.8536 18.6451 37.7409C18.8773 37.6285 19.085 37.514 19.2681 37.3976C19.4513 37.2814 19.6119 37.1695 19.7498 37.062C19.8877 36.9544 20.0266 36.8332 20.1664 36.6983C20.3062 36.5637 20.4657 36.3891 20.6448 36.1745C20.8237 35.96 20.9426 35.8032 21.0016 35.704C21.0604 35.6046 21.1272 35.462 21.2021 35.2762C21.2769 35.0904 21.3227 34.9594 21.3394 34.8833C21.3561 34.8074 21.3687 34.7098 21.377 34.5903C21.3851 34.4712 21.3848 34.3659 21.3762 34.2746C21.3673 34.1833 21.352 34.1016 21.3302 34.0296C21.3083 33.9573 21.287 33.8979 21.2663 33.8516C21.2456 33.8056 21.1918 33.7289 21.1051 33.6217C21.0183 33.5144 20.9037 33.4191 20.7612 33.336C20.6184 33.2528 20.4854 33.206 20.362 33.1954C20.2383 33.1849 20.1457 33.1853 20.084 33.1967C20.022 33.2081 19.9265 33.2478 19.7975 33.3157C19.6685 33.384 19.5717 33.4489 19.5074 33.5104C19.443 33.5721 19.3379 33.739 19.1922 34.0109C19.0462 34.2832 18.9514 34.4987 18.9077 34.6574C18.8638 34.8164 18.8295 34.9908 18.8047 35.1807C18.7799 35.3706 18.7723 35.6039 18.782 35.8804C18.7917 36.1573 18.8118 36.3837 18.8422 36.5597C18.8724 36.7358 18.9274 36.9416 19.0071 37.1769C19.0868 37.4123 19.1713 37.6181 19.2605 37.7942C19.3499 37.9702 19.4501 38.1416 19.5611 38.3085C19.6721 38.4751 19.7988 38.6398 19.9413 38.8026C20.0838 38.9657 20.2235 39.1094 20.3604 39.2337C20.4972 39.3583 20.7162 39.5268 21.0174 39.7391C21.3183 39.9512 21.5195 40.0866 21.6211 40.1451C21.7227 40.2038 21.835 40.2627 21.9581 40.3214C22.0812 40.3802 22.2628 40.4549 22.5028 40.5453C22.7425 40.6358 22.9368 40.7016 23.0855 40.7427C23.2342 40.7842 23.313 40.8069 23.3219 40.8107C23.3307 40.8145 23.426 40.835 23.6075 40.8724C23.7891 40.9098 23.9591 40.9373 24.1175 40.9549C24.2761 40.9725 24.5094 40.9866 24.8174 40.9972C25.1255 41.0077 25.493 40.9886 25.9197 40.9398C26.3467 40.8908 26.6112 40.8529 26.7133 40.8261C26.8154 40.799 26.984 40.7393 27.2192 40.6469C27.4544 40.5545 27.7772 40.3786 28.1878 40.1191C28.5986 39.8596 28.8752 39.6655 29.0177 39.5369C29.1602 39.4082 29.2588 39.3131 29.3135 39.2516C29.3679 39.1901 29.4341 39.1077 29.5119 39.0042C29.59 38.9004 29.7153 38.708 29.8877 38.4271C30.0604 38.1465 30.1851 37.92 30.2619 37.7474C30.3384 37.5749 30.3956 37.4273 30.4336 37.3049C30.4716 37.1825 30.522 36.9034 30.5847 36.4679C30.6472 36.032 30.6757 35.6473 30.67 35.3136C30.6641 34.9799 30.6442 34.7052 30.6102 34.4896C30.5765 34.2739 30.538 34.0889 30.4946 33.9345C30.4513 33.7799 30.3757 33.5904 30.268 33.3661C30.1605 33.1419 30.0406 32.9453 29.9083 32.7765C29.7763 32.6077 29.6639 32.4825 29.5709 32.4007C29.478 32.3192 29.3805 32.249 29.2784 32.1902C29.1765 32.1315 29.0757 32.0829 28.9757 32.0447C28.876 32.0065 28.7835 31.9777 28.6981 31.9582C28.613 31.9384 28.5101 31.9246 28.3894 31.9168C28.2684 31.9089 28.1779 31.9058 28.1179 31.9074C28.0578 31.9091 27.9523 31.9272 27.8015 31.9619C27.6506 31.9966 27.4802 32.0649 27.2903 32.167C27.1007 32.2689 26.9837 32.3375 26.9396 32.3727C26.8954 32.4076 26.8499 32.4479 26.803 32.4937C26.7561 32.5395 26.7067 32.5952 26.6547 32.6607C26.603 32.726 26.5227 32.8657 26.4139 33.0797C26.3048 33.2934 26.22 33.5565 26.1597 33.8691C26.0991 34.1814 26.0693 34.45 26.0704 34.6749C26.0712 34.8997 26.088 35.1169 26.1209 35.3266C26.1535 35.5363 26.2039 35.7397 26.272 35.9369C26.3402 36.1341 26.4183 36.3155 26.5064 36.481C26.5948 36.6465 26.7355 36.8492 26.9286 37.0892C27.1218 37.3292 27.2945 37.5139 27.4467 37.6434C27.5989 37.7731 27.7716 37.8958 27.9647 38.0115C28.1579 38.1272 28.3619 38.2341 28.5769 38.3321C28.7919 38.4302 28.9924 38.5064 29.1786 38.5609C29.3647 38.6153 29.5682 38.6586 29.7891 38.6905C30.0103 38.7222 30.2173 38.7426 30.4102 38.7518C30.6033 38.7613 30.8288 38.7544 31.0866 38.7311C31.3447 38.7075 31.5951 38.666 31.8378 38.6064C32.0805 38.5468 32.2862 38.4855 32.4548 38.4227C32.6235 38.3601 32.8399 38.2648 33.1042 38.1367C33.3687 38.0083 33.6615 37.8414 33.9826 37.636C34.3037 37.4307 34.5834 37.2243 34.8215 37.0168C35.0596 36.8093 35.276 36.5989 35.4705 36.3854C35.6647 36.172 35.8251 35.9802 35.9517 35.8101C36.0781 35.64 36.2193 35.4232 36.3756 35.1599C36.5318 34.8967 36.6838 34.605 36.8314 34.2848C36.9787 33.9646 37.0822 33.7196 37.1417 33.5498C37.201 33.3799 37.279 33.1204 37.3757 32.7712C37.4724 32.4224 37.557 32.0644 37.6295 31.6973C37.7019 31.3303 37.7505 31.0406 37.7753 30.8282C37.8001 30.6161 37.8171 30.4634 37.8262 30.37C37.8354 30.2768 37.8478 29.9681 37.8634 29.4439C37.879 28.9195 37.8813 28.5179 37.8703 28.2392C37.8592 27.9602 37.8382 27.6797 37.8072 27.3977C37.7763 27.1154 37.7429 26.8769 37.707 26.6822C37.6712 26.4871 37.613 26.2318 37.5325 25.9162C37.4522 25.6004 37.3714 25.3364 37.29 25.1243C37.2087 24.9122 37.1479 24.7652 37.1078 24.6831C37.0676 24.601 36.9899 24.4679 36.8746 24.2837C36.7591 24.0995 36.6337 23.9358 36.4984 23.7925C36.3632 23.6492 36.1901 23.5081 35.9792 23.3691C35.7685 23.2299 35.5756 23.137 35.4005 23.0904C35.2254 23.0438 35.0572 23.0206 34.8959 23.0208C34.7345 23.0211 34.6253 23.0269 34.5681 23.0383C34.5108 23.0497 34.4228 23.0778 34.3043 23.1228C34.186 23.1678 34.0795 23.2224 33.9847 23.2866C33.8896 23.3511 33.7997 23.4276 33.7151 23.5161C33.6303 23.605 33.5352 23.7476 33.4299 23.944C33.3243 24.1401 33.2552 24.3223 33.2226 24.4906C33.19 24.6585 33.1793 24.8059 33.1906 24.933C33.2017 25.0603 33.2172 25.1573 33.2371 25.2239C33.257 25.2906 33.2914 25.3708 33.3402 25.4645C33.3892 25.5582 33.4656 25.6696 33.5693 25.7985C33.6727 25.9272 33.7822 26.0391 33.8978 26.1345C34.0134 26.2296 34.1433 26.3156 34.2877 26.3925C34.4318 26.4689 34.646 26.5478 34.9302 26.6294C35.2144 26.7109 35.4154 26.7579 35.5331 26.7703C35.6508 26.7831 35.7902 26.786 35.9513 26.7793C36.1121 26.7725 36.2897 26.7484 36.4839 26.707C36.6781 26.6658 36.9037 26.5899 37.1607 26.4794C37.418 26.3691 37.6022 26.2788 37.7135 26.2084C37.825 26.138 37.8939 26.0948 37.92 26.0788C37.9458 26.0628 38.0774 25.9534 38.3148 25.7505C38.5524 25.5476 38.754 25.3465 38.9197 25.1472C39.0856 24.9475 39.1811 24.8279 39.2062 24.7884C39.2312 24.7488 39.3396 24.5588 39.5314 24.2183C39.7232 23.8778 39.8539 23.6316 39.9234 23.4796C39.9932 23.3279 40.1172 22.998 40.2956 22.4898C40.4739 21.9819 40.5947 21.6077 40.658 21.3672C40.7213 21.1269 40.7698 20.9375 40.8035 20.7991C40.8374 20.6607 40.8743 20.47 40.9142 20.227C40.9538 19.9838 40.9793 19.6648 40.9906 19.2701C41.0016 18.8755 41.003 18.5752 40.9946 18.3693C40.9865 18.1637 40.9687 17.9506 40.9413 17.7298C40.9138 17.509 40.856 17.2097 40.7679 16.8318C40.6798 16.4537 40.6045 16.157 40.542 15.9416C40.4795 15.7263 40.363 15.4045 40.1925 14.9762C40.022 14.548 39.8394 14.1565 39.6446 13.8019C39.4501 13.4473 39.2854 13.1678 39.1504 12.9633C39.0154 12.7585 38.904 12.5938 38.8162 12.4692C38.7281 12.3446 38.5392 12.1145 38.2493 11.7789C37.9594 11.4433 37.5742 11.0742 37.0936 10.6717C36.6131 10.2689 36.2192 9.97111 35.9121 9.77824C35.6048 9.58538 35.2737 9.40707 34.9189 9.24346C34.5641 9.07985 34.1305 8.92909 33.6182 8.79122C33.1055 8.65361 32.6928 8.56685 32.3801 8.53082C32.067 8.49479 31.7268 8.4791 31.3594 8.4837C30.9922 8.48858 30.7728 8.49341 30.7011 8.49828C30.6295 8.50343 30.4167 8.5389 30.0627 8.60472C29.7084 8.67055 29.3919 8.75172 29.1131 8.84816C28.8343 8.94459 28.5968 9.03814 28.4007 9.12889C28.2046 9.21963 28.0319 9.30934 27.8827 9.39791C27.7334 9.48649 27.6179 9.5609 27.536 9.62131C27.4541 9.68199 27.4084 9.71496 27.399 9.72011C27.3898 9.72526 27.2864 9.82289 27.0887 10.013C26.8909 10.2029 26.6889 10.4544 26.4825 10.7675C26.2765 11.0807 26.1426 11.3193 26.0809 11.4835C26.0195 11.6476 25.9772 11.8285 25.954 12.026C25.9311 12.2234 25.9268 12.3661 25.9411 12.4538C25.9554 12.5413 25.9696 12.6046 25.9839 12.6436C25.9982 12.6826 26.0234 12.7271 26.0595 12.7772C26.0956 12.8276 26.1237 12.8616 26.1439 12.8792C26.1644 12.8968 26.1975 12.9179 26.2433 12.9426C26.2891 12.9672 26.3508 12.9862 26.4284 12.9995C26.5057 13.0125 26.6216 13.0035 26.7759 12.9726C26.9303 12.9417 27.0464 12.9106 27.1242 12.8792C27.2021 12.8478 27.3311 12.7747 27.5113 12.6602C27.6916 12.5456 27.8939 12.3603 28.1183 12.1043C28.3429 11.8481 28.5377 11.5867 28.7026 11.3202C28.8674 11.0534 28.9958 10.8313 29.0876 10.6542C29.1792 10.477 29.2405 10.3449 29.2715 10.2577C29.3025 10.1704 29.3336 10.0738 29.3648 9.96791C29.3961 9.862 29.431 9.71395 29.4695 9.5238C29.5078 9.33364 29.5376 9.01283 29.5592 8.56128C29.5808 8.10945 29.5754 7.73279 29.543 7.43131C29.5107 7.12982 29.4338 6.79147 29.3123 6.41631C29.1911 6.04114 29.0723 5.73972 28.9559 5.51192C28.8395 5.28411 28.6401 4.97826 28.3575 4.59443C28.0746 4.21059 27.7718 3.85655 27.4491 3.53231C27.1267 3.20834 26.7734 2.90436 26.3892 2.62048C26.0051 2.33687 25.565 2.06969 25.0691 1.81886C24.5731 1.56775 24.0707 1.37856 23.5619 1.25124C23.0527 1.12366 22.6581 1.04779 22.3779 1.02368C22.0975 0.999302 21.7621 0.993743 21.3718 1.00702C20.9812 1.02029 20.692 1.03968 20.5042 1.06515C20.3165 1.09061 20.1233 1.12583 19.9248 1.17079C19.726 1.21603 19.4439 1.29907 19.0786 1.41988C18.7133 1.54096 18.4262 1.65145 18.2171 1.7514C18.0081 1.85108 17.8132 1.95686 17.6324 2.06874C17.4514 2.18034 17.2899 2.28833 17.1479 2.39262C17.006 2.49718 16.8976 2.5811 16.8227 2.64449C16.748 2.70814 16.4358 3.08382 15.886 3.77158C15.3359 4.45907 15.033 4.85698 14.9772 4.96533C14.9212 5.07395 14.8233 5.29948 14.6835 5.64187C14.5434 5.98425 14.4179 6.45593 14.3069 7.05673C14.1959 7.65754 14.1393 7.99269 14.1372 8.06231C14.135 8.13165 14.1443 8.30613 14.1651 8.58568C14.1858 8.86549 14.2359 9.14417 14.3154 9.42182C14.3946 9.69947 14.4774 9.91163 14.5639 10.0582C14.6503 10.2045 14.7251 10.3122 14.7881 10.3816C14.8509 10.4506 14.9104 10.5041 14.9667 10.5421C15.0228 10.58 15.1008 10.6181 15.2007 10.6562C15.3289 10.6752 15.4197 10.6836 15.4731 10.6814C15.5261 10.679 15.5654 10.6774 15.591 10.6766C15.6164 10.6755 15.6737 10.6536 15.7632 10.6111C15.8526 10.5686 15.9424 10.5065 16.0327 10.425C16.1227 10.3435 16.2078 10.2367 16.2881 10.1045C16.3681 9.97259 16.4368 9.80601 16.4941 9.60474C16.5513 9.40321 16.5789 9.18511 16.577 8.95053C16.5748 8.71595 16.5479 8.50389 16.4962 8.31427C16.4444 8.12466 16.3837 7.95807 16.3139 7.81451C16.2444 7.67094 16.1635 7.53873 16.0711 7.41791C15.9787 7.2971 15.8883 7.19379 15.7999 7.10792C15.7113 7.02205 15.6207 6.94482 15.528 6.87629C15.4353 6.80776 15.2325 6.70558 14.9195 6.56987C14.6067 6.43416 14.2711 6.33157 13.9125 6.26195C13.5542 6.19234 13.1353 6.16318 12.6558 6.17456C12.1763 6.18567 11.8596 6.20582 11.7058 6.23507C11.552 6.2646 11.2904 6.34404 10.9211 6.47325C10.5518 6.60246 10.2234 6.74345 9.93597 6.89623C9.64854 7.049 9.28028 7.30112 8.83122 7.65272C8.38242 8.00459 8.07061 8.2652 7.89578 8.4345C7.72094 8.6038 7.53574 8.80213 7.34017 9.02939C7.14486 9.25666 6.99253 9.44301 6.88316 9.58847C6.77352 9.73394 6.6271 9.94044 6.44392 10.2081C6.26047 10.4754 6.10018 10.7321 5.96306 10.978C5.82568 11.224 5.70582 11.4471 5.60345 11.6472C5.50109 11.8474 5.41838 12.0189 5.35534 12.1617C5.29231 12.3044 5.23532 12.4435 5.1844 12.5789C5.13349 12.7141 5.10199 12.8035 5.08987 12.8471C5.07775 12.8908 5.02749 13.0578 4.93913 13.3485C4.85104 13.6391 4.76944 13.9622 4.69428 14.3176C4.61939 14.673 4.57398 14.9412 4.55809 15.1225C4.54246 15.3039 4.53223 15.4503 4.52738 15.5613C4.52253 15.6721 4.54665 15.9477 4.59972 16.3881C4.65252 16.8286 4.68739 17.0772 4.70436 17.1341C4.72107 17.191 4.76592 17.3019 4.83893 17.4669C4.9122 17.6316 4.99503 17.7798 5.08743 17.9114C5.17956 18.0431 5.30887 18.1783 5.47535 18.3169C5.64156 18.4554 5.80225 18.5611 5.95742 18.6343C6.11231 18.7071 6.22842 18.7494 6.30573 18.7611C6.38277 18.7727 6.44674 18.7767 6.49766 18.7729C6.5483 18.7691 6.58938 18.7651 6.6209 18.7611C6.65242 18.7573 6.70833 18.7234 6.78861 18.6595C6.86915 18.5958 6.92612 18.5249 6.95952 18.4466C6.99319 18.3683 7.01151 18.2924 7.01447 18.219C7.0177 18.1456 7.00329 18.0568 6.97124 17.9525C6.93945 17.8482 6.88599 17.7528 6.81083 17.6664C6.73594 17.58 6.57255 17.4639 6.32068 17.3182C6.0688 17.1722 5.75121 17.0655 5.36787 16.998C4.98454 16.9306 4.61506 16.9188 4.25947 16.9627C3.90415 17.0063 3.59962 17.0772 3.34585 17.1756C3.09182 17.2739 2.86339 17.3909 2.66054 17.5266C2.4577 17.6621 2.31115 17.7721 2.2209 17.8566C2.13066 17.9411 2.00755 18.0843 1.85158 18.2861C1.69587 18.4876 1.54231 18.7719 1.39092 19.1389C1.23953 19.5059 1.1342 19.8259 1.07494 20.0986C1.01567 20.3714 0.991559 20.7035 1.0026 21.0949C1.01365 21.4866 1.03574 21.7607 1.06887 21.917C1.10201 22.0735 1.17368 22.2975 1.28386 22.5889C1.39431 22.8804 1.48629 23.0937 1.55984 23.2289C1.63311 23.364 1.69966 23.4766 1.75946 23.5665C1.81899 23.6562 1.95166 23.8318 2.15747 24.0932C2.36301 24.3543 2.57731 24.5959 2.80036 24.818C3.02341 25.0407 3.19178 25.1997 3.30546 25.2951C3.41914 25.3907 3.58938 25.5176 3.8162 25.6758C4.04329 25.834 4.23928 25.9598 4.40414 26.0532C4.56928 26.147 4.73749 26.2338 4.90882 26.314C5.08015 26.3945 5.2294 26.4588 5.35655 26.5071C5.4837 26.555 5.67778 26.6157 5.93882 26.6891C6.20012 26.7622 6.38357 26.8108 6.48917 26.8349C6.59504 26.8593 6.75735 26.8963 6.97609 26.9459C7.01623 26.9568 7.21449 26.9775 7.57089 27.0084C7.92702 27.0393 8.23385 27.0555 8.49139 27.0568" stroke="black" stroke-width="1.6" stroke-linecap="round" stroke-linejoin="round"/>
</svg>
